<svg xmlns="http://www.w3.org/2000/svg" xmlns:xlink="http://www.w3.org/1999/xlink" width="500" zoomAndPan="magnify" viewBox="0 0 375 374.999991" height="500" preserveAspectRatio="xMidYMid meet" version="1.2"><defs><clipPath id="bfbcf63f2f"><path d="M 152 116.542969 L 215 116.542969 L 215 196 L 152 196 Z M 152 116.542969 "/></clipPath></defs><g id="74a2a01b92"><path style=" stroke:none;fill-rule:nonzero;fill:#f8f9f9;fill-opacity:1;" d="M 206.691406 153.921875 C 205.683594 156.050781 224.90625 166.128906 227.417969 161.023438 C 229.925781 155.921875 207.703125 151.792969 206.691406 153.921875 Z M 206.691406 153.921875 "/><path style=" stroke:none;fill-rule:nonzero;fill:#f8f9f9;fill-opacity:1;" d="M 262.683594 165.96875 C 263.582031 164.996094 263.847656 164.003906 263.800781 163.398438 C 263.742188 162.695312 263.21875 158.480469 263.054688 157.710938 C 262.804688 156.511719 261.75 155.976562 260.828125 155.976562 C 259.859375 155.96875 237.125 155.726562 235.972656 155.726562 C 235.09375 155.726562 234.671875 156.195312 234.496094 156.472656 C 234.050781 157.183594 234.226562 158.136719 234.542969 158.792969 C 234.695312 159.109375 234.925781 159.558594 235.242188 160.175781 C 235.695312 161.054688 236.3125 162.257812 237.09375 163.839844 C 238.648438 166.976562 241.746094 169.066406 251.832031 169.066406 C 258.445312 169.066406 261.382812 167.382812 262.683594 165.96875 Z M 235.8125 157.324219 C 235.824219 157.316406 235.875 157.300781 235.972656 157.300781 C 237.117188 157.300781 260.574219 157.546875 260.820312 157.550781 C 261 157.550781 261.425781 157.59375 261.515625 158.03125 C 261.546875 158.171875 261.59375 158.476562 261.652344 158.871094 L 236.199219 158.589844 C 236.105469 158.402344 236.023438 158.242188 235.960938 158.109375 C 235.785156 157.742188 235.78125 157.386719 235.8125 157.324219 Z M 237.007812 160.171875 L 261.863281 160.445312 C 261.929688 160.960938 261.996094 161.484375 262.054688 161.960938 L 237.78125 161.691406 C 237.492188 161.121094 237.238281 160.617188 237.007812 160.171875 Z M 238.574219 163.273438 L 262.234375 163.535156 C 262.230469 163.613281 262.199219 164.179688 261.527344 164.90625 C 261.496094 164.941406 261.457031 164.980469 261.417969 165.019531 L 239.660156 164.792969 C 239.164062 164.300781 238.835938 163.785156 238.574219 163.273438 Z M 242.441406 166.394531 L 258.726562 166.5625 C 257.207031 167.085938 255.007812 167.492188 251.832031 167.492188 C 247.300781 167.492188 244.378906 167.058594 242.441406 166.394531 Z M 242.441406 166.394531 "/><path style=" stroke:none;fill-rule:nonzero;fill:#f8f9f9;fill-opacity:1;" d="M 231.203125 146.203125 C 221.84375 139.664062 215.511719 135.601562 215.511719 135.601562 C 212.214844 133.351562 207.011719 132.867188 203.851562 132.730469 C 203.824219 132.730469 203.792969 132.730469 203.765625 132.726562 L 192.285156 145.746094 C 211.445312 145.4375 231.203125 146.203125 231.203125 146.203125 Z M 231.203125 146.203125 "/><path style=" stroke:none;fill-rule:nonzero;fill:#f8f9f9;fill-opacity:1;" d="M 226.488281 153.808594 C 213.824219 148.167969 190.175781 148.574219 190.175781 148.574219 C 190.175781 148.574219 217.304688 150.976562 225.777344 155.171875 C 231.101562 157.804688 236.542969 167.742188 236.542969 167.742188 C 236.542969 167.742188 232.820312 156.628906 226.488281 153.808594 Z M 226.488281 153.808594 "/><path style=" stroke:none;fill-rule:nonzero;fill:#f8f9f9;fill-opacity:1;" d="M 166.789062 172.941406 L 167.519531 171.980469 L 144.058594 171.53125 Z M 166.789062 172.941406 "/><path style=" stroke:none;fill-rule:nonzero;fill:#f8f9f9;fill-opacity:1;" d="M 276.972656 182.210938 L 260.796875 182.210938 C 261.941406 181.183594 262.710938 179.933594 262.953125 178.5625 C 263.003906 178.5625 263.054688 178.5625 263.101562 178.5625 C 263.144531 178.5625 263.195312 178.5625 263.257812 178.5625 C 264.402344 178.5625 268.199219 178.449219 269.664062 177 C 270.09375 176.574219 270.320312 176.054688 270.320312 175.492188 C 270.320312 173.578125 269.574219 172.320312 269.164062 171.777344 C 269.09375 169.8125 268.789062 161.425781 268.574219 160.109375 C 268.390625 159.011719 267.5625 157.605469 266.414062 156.441406 C 266.328125 156.355469 257.589844 147.757812 234.511719 144.886719 C 232.957031 143.808594 224.652344 138.082031 216.730469 132.953125 C 214.457031 131.480469 210.898438 130.359375 206.582031 129.535156 L 205.171875 131.132812 C 209.964844 131.96875 213.59375 133.105469 215.734375 134.492188 C 223.859375 139.753906 233.78125 146.644531 233.832031 146.652344 L 233.835938 146.652344 C 252.261719 148.867188 262.292969 155.085938 264.914062 157.546875 C 264.097656 159.019531 263.890625 162.386719 267.078125 165.546875 C 267.191406 168 267.289062 170.691406 267.339844 172.152344 L 267.359375 172.507812 L 267.601562 172.761719 C 267.636719 172.796875 268.484375 173.710938 268.484375 175.492188 C 268.484375 175.527344 268.484375 175.585938 268.375 175.695312 C 267.882812 176.179688 266.519531 176.480469 265.144531 176.625 C 264.789062 175.941406 263.84375 174.167969 263.4375 173.734375 C 262.933594 173.199219 262.574219 172.871094 261.023438 172.929688 C 259.476562 172.988281 245.140625 173.257812 244.21875 173.316406 C 243.292969 173.378906 242.757812 173.378906 241.863281 174.179688 C 241.160156 174.816406 239.550781 176.683594 238.898438 177.453125 C 228.742188 177.761719 218.683594 178.070312 215.632812 178.160156 C 215.503906 173.214844 214.402344 168.269531 212.554688 164.460938 C 210.109375 159.410156 206.585938 156.742188 202.363281 156.742188 C 201.496094 156.742188 200.65625 156.867188 199.851562 157.097656 L 205.746094 162.085938 L 203.785156 163.449219 C 206.882812 164.148438 209.265625 168.402344 209.265625 173.546875 C 209.265625 179.179688 206.410156 183.75 202.886719 183.75 C 201.140625 183.75 199.558594 182.625 198.410156 180.808594 C 199.457031 182.128906 200.796875 182.921875 202.257812 182.921875 C 205.625 182.921875 208.359375 178.695312 208.359375 173.480469 C 208.359375 168.585938 205.949219 164.5625 202.867188 164.089844 L 195.15625 169.449219 C 194.9375 170.621094 194.816406 171.859375 194.816406 173.144531 C 194.816406 176.679688 195.707031 179.878906 197.144531 182.207031 L 184.875 182.207031 C 186.75 181.574219 187.9375 180.582031 188.65625 179.753906 L 194.46875 179.980469 L 195.976562 180.039062 L 195.332031 178.671875 C 195.3125 178.632812 193.679688 175.097656 193.589844 170.539062 L 188.214844 174.273438 L 192.167969 174.519531 C 192.449219 176 192.824219 177.230469 193.128906 178.09375 L 183.273438 177.710938 L 170.355469 186.691406 C 179.777344 187.148438 188.804688 187.449219 196.25 187.449219 C 212.292969 187.449219 276.972656 182.210938 276.972656 182.210938 Z M 217.390625 179.945312 C 222.199219 179.796875 232.785156 179.472656 242.664062 179.175781 C 243 180.304688 243.703125 181.335938 244.675781 182.210938 L 216.273438 182.210938 C 216.695312 181.523438 217.074219 180.765625 217.390625 179.945312 Z M 202.257812 180.804688 C 201.6875 180.804688 201.136719 180.648438 200.632812 180.363281 C 200.953125 179.535156 201.417969 178.34375 201.703125 177.613281 C 201.882812 177.671875 202.066406 177.703125 202.257812 177.703125 C 202.4375 177.703125 202.617188 177.671875 202.789062 177.621094 C 203.074219 178.355469 203.539062 179.550781 203.863281 180.371094 C 203.359375 180.652344 202.820312 180.804688 202.257812 180.804688 Z M 206.988281 173.480469 C 206.988281 175.195312 206.609375 176.773438 205.972656 178.023438 C 205.566406 177.296875 204.976562 176.246094 204.613281 175.597656 C 204.796875 175.117188 204.917969 174.574219 204.964844 173.992188 C 205.507812 173.796875 206.386719 173.480469 206.988281 173.265625 C 206.988281 173.335938 206.988281 173.410156 206.988281 173.480469 Z M 203.570312 166.445312 C 204.660156 166.929688 205.585938 168.003906 206.199219 169.425781 C 205.632812 169.796875 204.804688 170.335938 204.289062 170.675781 C 204.042969 170.242188 203.738281 169.890625 203.394531 169.648438 C 203.441406 168.773438 203.519531 167.382812 203.570312 166.445312 Z M 202.257812 171.285156 C 203.039062 171.285156 203.675781 172.269531 203.675781 173.480469 C 203.675781 174.695312 203.042969 175.679688 202.257812 175.679688 C 201.472656 175.679688 200.835938 174.695312 200.835938 173.480469 C 200.835938 172.269531 201.472656 171.285156 202.257812 171.285156 Z M 200.964844 166.433594 C 201.019531 167.375 201.09375 168.761719 201.144531 169.628906 C 200.796875 169.871094 200.492188 170.21875 200.242188 170.644531 C 199.71875 170.304688 198.890625 169.761719 198.328125 169.394531 C 198.945312 167.976562 199.875 166.910156 200.964844 166.433594 Z M 197.527344 173.226562 C 198.128906 173.441406 199.003906 173.757812 199.546875 173.953125 C 199.589844 174.535156 199.707031 175.082031 199.886719 175.570312 C 199.523438 176.21875 198.933594 177.273438 198.527344 177.996094 C 197.898438 176.75 197.523438 175.183594 197.523438 173.480469 C 197.523438 173.394531 197.523438 173.3125 197.527344 173.226562 Z M 197.527344 173.226562 "/><path style=" stroke:none;fill-rule:nonzero;fill:#f8f9f9;fill-opacity:1;" d="M 142.75 182.210938 C 143.804688 181.273438 144.695312 179.835938 145.316406 178.070312 L 162.382812 178.734375 L 163.738281 176.949219 L 142.488281 176.125 C 142.09375 172.351562 140.015625 157.199219 131.878906 157.199219 C 129.625 157.199219 127.832031 157.992188 126.550781 159.550781 C 123.121094 163.722656 124.710938 171.984375 124.78125 172.332031 C 124.78125 172.332031 124.363281 164.484375 127.96875 160.714844 C 128.980469 159.65625 130.179688 159.03125 131.878906 159.03125 C 133.292969 159.03125 134.503906 159.722656 135.539062 160.847656 L 131.996094 160.847656 C 128.472656 160.847656 125.617188 165.898438 125.617188 172.125 C 125.617188 172.628906 125.640625 173.125 125.675781 173.609375 C 123.546875 172.941406 119.753906 171.738281 118.828125 171.371094 C 118.046875 170.773438 116.613281 165.941406 116.65625 164.894531 C 116.714844 164.507812 116.839844 163.441406 117.003906 162.101562 C 117.234375 160.191406 117.519531 157.8125 117.746094 156.195312 C 118.109375 153.613281 119.441406 148.691406 121.878906 148.527344 C 124.074219 148.378906 146.929688 147.953125 159.707031 147.722656 L 159.292969 147.355469 C 148.0625 147.089844 129.535156 146.671875 123.523438 146.671875 L 124.4375 145.695312 C 127.703125 145.640625 131.582031 143.3125 136.4375 140.394531 C 141.882812 137.125 148.050781 133.421875 155.175781 131.800781 C 162.195312 130.203125 174.957031 129.308594 186.933594 129.570312 C 187.308594 129.578125 187.679688 129.589844 188.046875 129.597656 L 190.894531 127.878906 C 177.351562 127.273438 162.484375 128.257812 154.769531 130.011719 C 154.371094 130.101562 153.976562 130.199219 153.585938 130.304688 L 127.71875 130.304688 L 148.105469 132.152344 C 143.386719 134.082031 139.132812 136.636719 135.492188 138.820312 C 130.875 141.59375 126.882812 143.992188 124.085938 143.859375 L 123.664062 143.839844 L 120.792969 146.894531 C 117.21875 148.125 116.121094 154.5625 115.925781 155.9375 C 115.699219 157.578125 115.410156 159.964844 115.179688 161.882812 C 115.160156 162.066406 115.136719 162.246094 115.113281 162.421875 L 98 162.421875 L 114.835938 164.933594 C 114.921875 166.539062 116.347656 172.355469 118.113281 173.0625 C 119.179688 173.488281 124.117188 175.046875 125.929688 175.613281 C 126.460938 178.496094 127.628906 180.867188 129.144531 182.210938 L 106.617188 182.210938 C 106.617188 182.210938 131.15625 184.402344 156.886719 185.953125 L 159.738281 182.210938 Z M 130.304688 166.195312 C 130.34375 167.046875 130.402344 168.292969 130.441406 169.078125 C 130.171875 169.292969 129.933594 169.605469 129.738281 169.992188 C 129.332031 169.6875 128.6875 169.199219 128.25 168.867188 C 128.730469 167.589844 129.453125 166.625 130.304688 166.195312 Z M 132.890625 170.019531 C 132.695312 169.628906 132.460938 169.3125 132.195312 169.09375 C 132.230469 168.308594 132.289062 167.054688 132.332031 166.207031 C 133.179688 166.644531 133.898438 167.613281 134.378906 168.894531 C 133.9375 169.226562 133.292969 169.714844 132.890625 170.019531 Z M 134.988281 172.351562 C 134.992188 172.417969 134.992188 172.484375 134.992188 172.550781 C 134.992188 174.09375 134.695312 175.515625 134.199219 176.640625 C 133.882812 175.988281 133.421875 175.039062 133.140625 174.457031 C 133.285156 174.023438 133.378906 173.53125 133.414062 173.011719 C 133.835938 172.835938 134.523438 172.546875 134.988281 172.351562 Z M 132.414062 172.550781 C 132.414062 173.640625 131.917969 174.527344 131.304688 174.527344 C 130.695312 174.527344 130.203125 173.640625 130.203125 172.550781 C 130.203125 171.457031 130.695312 170.570312 131.304688 170.570312 C 131.917969 170.570312 132.414062 171.457031 132.414062 172.550781 Z M 132.554688 178.757812 C 132.164062 179.011719 131.746094 179.148438 131.304688 179.148438 C 130.863281 179.148438 130.4375 179.007812 130.042969 178.75 C 130.292969 178.007812 130.652344 176.933594 130.875 176.273438 C 131.015625 176.328125 131.160156 176.355469 131.304688 176.355469 C 131.449219 176.355469 131.585938 176.328125 131.71875 176.28125 C 131.945312 176.941406 132.304688 178.019531 132.554688 178.757812 Z M 128.40625 176.617188 C 127.914062 175.496094 127.621094 174.085938 127.621094 172.550781 C 127.621094 172.472656 127.625 172.394531 127.625 172.320312 C 128.09375 172.515625 128.773438 172.800781 129.195312 172.976562 C 129.230469 173.5 129.320312 173.992188 129.460938 174.429688 C 129.179688 175.019531 128.71875 175.96875 128.40625 176.617188 Z M 131.929688 181.640625 C 130.742188 181.640625 129.652344 180.9375 128.785156 179.757812 C 129.515625 180.578125 130.378906 181.058594 131.304688 181.058594 C 133.929688 181.058594 136.054688 177.246094 136.054688 172.550781 C 136.054688 167.851562 133.929688 164.039062 131.304688 164.039062 C 130.8125 164.039062 130.335938 164.175781 129.886719 164.429688 C 130.511719 163.953125 131.203125 163.6875 131.929688 163.6875 C 134.761719 163.6875 137.0625 167.707031 137.0625 172.664062 C 137.0625 177.621094 134.761719 181.640625 131.929688 181.640625 Z M 131.929688 181.640625 "/><path style=" stroke:none;fill-rule:nonzero;fill:#f8f9f9;fill-opacity:1;" d="M 161.394531 131.757812 C 153.664062 132.085938 145.738281 136.214844 143.703125 137.917969 C 141.671875 139.621094 134.875 145.539062 134.875 145.539062 L 160.34375 146.339844 L 178.105469 135.605469 C 174.378906 131.617188 170.292969 131.378906 161.394531 131.757812 Z M 161.394531 131.757812 "/><g clip-rule="nonzero" clip-path="url(#bfbcf63f2f)"><path style=" stroke:none;fill-rule:nonzero;fill:#023e8a;fill-opacity:1;" d="M 152.710938 195.765625 L 178.894531 161.351562 L 163.425781 147.535156 L 214.367188 116.75 L 186.054688 148.851562 L 201.453125 161.882812 Z M 152.710938 195.765625 "/></g><path style="fill:none;stroke-width:2;stroke-linecap:round;stroke-linejoin:miter;stroke:#023e8a;stroke-opacity:1;stroke-miterlimit:4;" d="M 1.001124 0.997796 L 276.063197 0.997796 " transform="matrix(0.749831,0,0,0.749831,83.600889,195.954947)"/></g></svg>